<?xml version="1.0" standalone="no"?><!DOCTYPE svg PUBLIC "-//W3C//DTD SVG 1.1//EN" "http://www.w3.org/Graphics/SVG/1.1/DTD/svg11.dtd"><svg t="1563430845381" class="icon" viewBox="0 0 1024 1024" version="1.1" xmlns="http://www.w3.org/2000/svg" p-id="1841" xmlns:xlink="http://www.w3.org/1999/xlink" width="200" height="200"><defs><style type="text/css"></style></defs><path d="M639.998861 210.564102m62.098926-15.483002l206.996422-51.610004q62.098926-15.483001 77.581928 46.615925l10.322001 41.399284q15.483001 62.098926-46.615925 77.581928l-206.996422 51.610005q-62.098926 15.483001-77.581928-46.615926l-10.322001-41.399284q-15.483001-62.098926 46.615925-77.581928Z" fill="#FFC13C" p-id="1842"></path><path d="M255.981601 198.862127m62.098926-15.483001l331.194275-82.576007q62.098926-15.483001 77.581928 46.615925l20.644001 82.798569q15.483001 62.098926-46.615925 77.581928l-331.194274 82.576007q-62.098926 15.483001-77.581928-46.615926l-20.644002-82.798568q-15.483001-62.098926 46.615925-77.581928Z" fill="#5BADFF" p-id="1843"></path><path d="M341.333333 1024a85.333333 85.333333 0 1 1 0-170.666667 85.333333 85.333333 0 0 1 0 170.666667zM725.333333 1024a85.333333 85.333333 0 1 1 0-170.666667 85.333333 85.333333 0 0 1 0 170.666667zM34.133333 128h145.066667a34.133333 34.133333 0 0 1 34.133333 34.133333v17.066667a34.133333 34.133333 0 0 1-34.133333 34.133333H34.133333a34.133333 34.133333 0 0 1-34.133333-34.133333v-17.066667A34.133333 34.133333 0 0 1 34.133333 128z" fill="#EDEEF0" p-id="1844"></path><path d="M123.595118 137.254166m33.80115-4.750442l16.900575-2.375221q33.80115-4.750442 38.551592 29.050709l91.446005 650.672139q4.750442 33.80115-29.050708 38.551591l-16.900575 2.375221q-33.80115 4.750442-38.551592-29.050708l-91.446005-650.672139q-4.750442-33.80115 29.050708-38.551592Z" fill="#EDEEF0" p-id="1845"></path><path d="M297.472 213.333333h679.082667a34.133333 34.133333 0 0 1 33.706666 39.808l-59.008 349.568a34.133333 34.133333 0 0 1-27.904 27.946667L389.76 721.92a34.133333 34.133333 0 0 1-39.253333-27.050667L264.021333 254.037333A34.133333 34.133333 0 0 1 297.472 213.333333z m124.757333 213.333334a34.133333 34.133333 0 0 0-33.621333 40.106666l23.04 130.517334a34.133333 34.133333 0 0 0 39.253333 27.733333l404.821334-67.285333a34.133333 34.133333 0 0 0 28.117333-28.288l10.112-63.232a34.133333 34.133333 0 0 0-33.706667-39.552H422.229333z" fill="#535456" p-id="1846"></path><path d="M247.381333 764.586667l612.906667-42.837334a34.133333 34.133333 0 0 1 36.437333 31.701334l1.194667 17.024a34.133333 34.133333 0 0 1-31.701333 36.394666L253.354667 849.749333a34.133333 34.133333 0 0 1-36.437334-31.658666l-1.194666-17.066667a34.133333 34.133333 0 0 1 31.658666-36.394667z" fill="#CACBCC" p-id="1847"></path></svg>